<?xml version="1.0" encoding="UTF-8"?>
<svg version="1.1" xmlns="http://www.w3.org/2000/svg" width="224" height="302">
<path d="M0 0 C73.92 0 147.84 0 224 0 C224 99.66 224 199.32 224 302 C150.08 302 76.16 302 0 302 C0 202.34 0 102.68 0 0 Z " fill="#FBFBFB" transform="translate(0,0)"/>
<path d="M0 0 C2.50705745 5.01411489 0.71034862 11.05191109 -0.56054688 16.22949219 C-0.72635757 16.91510223 -0.89216827 17.60071228 -1.06300354 18.30709839 C-1.4213274 19.78490649 -1.78321337 21.26185462 -2.14833069 22.73799896 C-2.72782483 25.08360704 -3.29641599 27.43162407 -3.86218262 29.78057861 C-5.47186773 36.45509375 -7.10106577 43.12479854 -8.73681641 49.79296875 C-9.73943651 53.88340123 -10.72967909 57.97668074 -11.71290588 62.07181549 C-12.0876445 63.62133103 -12.4671274 65.16970796 -12.85166931 66.71681976 C-17.06735978 82.60423038 -17.06735978 82.60423038 -13.4609375 98.1484375 C-8.98715305 103.818421 -2.65401009 107.12059351 3.52148438 110.60546875 C12.86161704 116.02141546 12.86161704 116.02141546 14.8046875 121.10546875 C14.98498317 126.44422384 13.52447469 129.11880646 10 133.125 C6.5203138 136.65354294 2.88551769 139.96330119 -0.90234375 143.15625 C-3.38134551 145.33518637 -5.68230188 147.65045565 -8 150 C-10.89591958 152.93118191 -13.80242571 155.76403174 -16.9375 158.4375 C-20.28925096 161.30172355 -23.40556417 164.36334093 -26.5 167.5 C-30.1684722 171.2184599 -33.93149226 174.73668192 -37.90625 178.125 C-40.53985527 180.48345248 -43.01826514 182.98445404 -45.5 185.5 C-49.16847581 189.21845505 -52.93149229 192.73668195 -56.90625 196.125 C-59.53988112 198.48347563 -62.01784449 200.98484498 -64.5 203.5 C-70.53477457 209.59898531 -76.59053169 215.58960219 -84 220 C-84.66 220 -85.32 220 -86 220 C-88.50705745 214.98588511 -86.71034862 208.94808891 -85.43945312 203.77050781 C-85.27364243 203.08489777 -85.10783173 202.39928772 -84.93699646 201.69290161 C-84.5786726 200.21509351 -84.21678663 198.73814538 -83.85166931 197.26200104 C-83.27217517 194.91639296 -82.70358401 192.56837593 -82.13781738 190.21942139 C-80.52813227 183.54490625 -78.89893423 176.87520146 -77.26318359 170.20703125 C-76.26056349 166.11659877 -75.27032091 162.02331926 -74.28709412 157.92818451 C-73.9123555 156.37866897 -73.5328726 154.83029204 -73.14833069 153.28318024 C-68.93264022 137.39576962 -68.93264022 137.39576962 -72.5390625 121.8515625 C-77.01284695 116.181579 -83.34598991 112.87940649 -89.52148438 109.39453125 C-98.86161704 103.97858454 -98.86161704 103.97858454 -100.8046875 98.89453125 C-100.98498317 93.55577616 -99.52447469 90.88119354 -96 86.875 C-92.5203138 83.34645706 -88.88551769 80.03669881 -85.09765625 76.84375 C-82.61865449 74.66481363 -80.31769812 72.34954435 -78 70 C-75.10408042 67.06881809 -72.19757429 64.23596826 -69.0625 61.5625 C-65.71074904 58.69827645 -62.59443583 55.63665907 -59.5 52.5 C-55.8315278 48.7815401 -52.06850774 45.26331808 -48.09375 41.875 C-45.46014473 39.51654752 -42.98173486 37.01554596 -40.5 34.5 C-36.83152419 30.78154495 -33.06850771 27.26331805 -29.09375 23.875 C-26.46011888 21.51652437 -23.98215551 19.01515502 -21.5 16.5 C-5.1737137 0 -5.1737137 0 0 0 Z " fill="#5AAC8E" transform="translate(158,42)"/>
</svg>
